<?xml version="1.0" encoding="utf-8"?>
<!-- Generator: Adobe Illustrator 25.2.0, SVG Export Plug-In . SVG Version: 6.00 Build 0)  -->
<svg version="1.0" id="Ebene_1" xmlns="http://www.w3.org/2000/svg" xmlns:xlink="http://www.w3.org/1999/xlink" x="0px" y="0px"
	 viewBox="0 0 122.48 58.77" enable-background="new 0 0 122.48 58.77" xml:space="preserve">
<path fill="#FFFFFF" d="M42.76,58.77v-7.62H28.99V37.23h15.1c15.15,0,30.73-2.96,30.55-18.7C74.47,5.09,62.65,0,47.1,0H0v7.53h11.62
	v43.63H0v7.62H42.76z M42.57,7.71c8.08,0.14,14.89,2.67,14.89,10.27c0,7.36-5.76,10.44-15.43,10.5c-9.67,0.06-13.04,0.04-13.04,0.04
	V7.61h9.05C38.04,7.61,40.08,7.67,42.57,7.71z"/>
<polygon fill="#FFFFFF" points="93.88,7.61 93.88,51.16 82.46,51.16 82.46,58.77 122.48,58.77 122.48,51.16 110.94,51.16 
	110.94,7.61 122.48,7.61 122.48,0 82.46,0 82.46,7.61 "/>
</svg>
